<svg width="512" height="512" xmlns="http://www.w3.org/2000/svg">

 <g>
  <title>background</title>
  <rect fill="none" id="canvas_background" height="514" width="514" y="-1" x="-1"/>
 </g>
 <g>
  <title>Layer 1</title>
  <path stroke="null" id="svg_2" fill="#f8981d" d="m263.32542,230.4327c22.73929,26.52917 -6.31647,50.53175 -6.31647,50.53175s59.37481,-30.31905 31.58234,-68.21786s-44.21528,-53.05834 60.6381,-113.69644c0,-1.26329 -165.49149,40.4254 -85.90398,131.38255m25.26588,-229.91947s50.53175,50.53175 -48.00516,126.32938c-78.32421,61.9014 -17.68611,97.27362 0,137.69902c-45.47858,-41.68869 -79.58751,-77.06092 -56.84822,-111.16985c34.10893,-50.53175 125.06608,-74.53433 104.85338,-152.85855"/>
  <path stroke="null" id="svg_3" fill="#5382a1" d="m185.02745,382.28856s-21.07318,11.23903 14.04879,15.45367s64.62443,4.21464 110.98543,-4.21464a192.4684,192.4684 0 0 0 29.50246,14.04879c-103.96103,44.95612 -237.42452,-1.40488 -154.53667,-25.28782m-12.64391,-59.00491s-22.47806,16.85855 12.64391,21.07318s81.48297,5.61952 143.29764,-7.02439a63.21955,63.21955 0 0 0 22.47806,14.04879c-127.84397,36.52685 -269.73674,2.80976 -178.41961,-28.09758m245.8538,102.55615s15.45367,12.64391 -16.85855,22.47806c-60.40979,18.26342 -251.47331,23.88294 -304.85871,1.40488c-19.6683,-8.42927 21.07318,-23.88294 46.361,-23.88294c-23.88294,-14.04879 -137.67813,29.50246 -59.00491,42.14636c214.94646,33.71709 390.55631,-16.85855 334.36116,-42.14636m-223.37573,-162.96594s-96.93664,22.47806 -35.12197,30.90733c26.6927,4.21464 80.07809,2.80976 129.24885,-1.40488s80.07809,-11.23903 80.07809,-11.23903a171.39522,171.39522 0 0 0 -23.88294,12.64391c-98.34152,25.28782 -289.40504,14.04879 -234.61476,-12.64391s84.29273,-18.26342 84.29273,-18.26342m174.20497,96.93664c102.55615,-51.98052 54.79027,-112.39031 9.83415,-92.722c50.57564,-42.14636 141.89276,50.57564 -12.64391,95.53176l0,-2.80976m-161.56107,141.89276c96.93664,5.61952 244.44892,-2.80976 247.25867,-49.17076c0,0 -7.02439,16.85855 -80.07809,30.90733s-184.03913,14.04879 -244.44892,4.21464c1.40488,0 14.04879,9.83415 77.26834,14.04879"/>
 </g>
</svg>